<svg id="グループ_4" data-name="グループ 4" xmlns="http://www.w3.org/2000/svg" width="80" height="80" viewBox="0 0 80 80">
  <rect id="長方形_2" data-name="長方形 2" width="80" height="80" fill="none"/>
  <path id="パス_18" data-name="パス 18" d="M-12.782-12.357a1.9,1.9,0,0,0,.56,1.3l8.744,8.708a1.731,1.731,0,0,0,1.247.542A1.638,1.638,0,0,0-.515-3.469a1.717,1.717,0,0,0-.524-1.247L-3.586-7.3-7.47-10.8l3.107.2H10.993a1.674,1.674,0,0,0,1.771-1.752,1.674,1.674,0,0,0-1.771-1.752H-4.363l-3.089.2,3.866-3.5,2.547-2.6a1.717,1.717,0,0,0,.524-1.247,1.638,1.638,0,0,0-1.716-1.662,1.807,1.807,0,0,0-1.247.542l-8.744,8.726A1.9,1.9,0,0,0-12.782-12.357Z" transform="translate(40 53)" fill="#959595"/>
</svg>
