<svg xmlns="http://www.w3.org/2000/svg" width="80" height="80" viewBox="0 0 80 80">
  <g id="グループ_9" data-name="グループ 9" transform="translate(-80)">
    <rect id="長方形_4" data-name="長方形 4" width="80" height="80" transform="translate(80)" fill="#e3e3e3"/>
    <path id="パス_19" data-name="パス 19" d="M-21.023,0h1.512V-5.625a2.172,2.172,0,0,1,2.276-2.391,2.1,2.1,0,0,1,2.259,2.347V0h1.512V-5.924a3.156,3.156,0,0,0-3.313-3.463,3.007,3.007,0,0,0-2.689,1.371h-.044V-12.63h-1.512ZM-7.312-9.387c-2.584,0-3.973,1.872-3.973,4.342v.826c0,2.5,1.38,4.368,3.973,4.368s3.955-1.863,3.955-4.368v-.826C-3.357-7.515-4.729-9.387-7.312-9.387Zm0,1.292c1.582,0,2.443,1.213,2.443,3.1v.721c0,1.89-.861,3.111-2.443,3.111s-2.461-1.23-2.461-3.111v-.721C-9.773-6.882-8.9-8.095-7.312-8.095ZM-1.028,0H.483V-5.854A1.976,1.976,0,0,1,2.5-8.024,1.916,1.916,0,0,1,4.518-5.836V0h1.5V-5.836A1.971,1.971,0,0,1,8.06-8.024a1.874,1.874,0,0,1,2,2.048V0h1.5V-6.284a2.868,2.868,0,0,0-3.1-3.1A2.934,2.934,0,0,0,5.625-7.9h-.07A2.571,2.571,0,0,0,2.892-9.387,2.52,2.52,0,0,0,.554-8.1H.475V-9.237h-1.5ZM17.719.149a3.413,3.413,0,0,0,3.612-2.663h-1.5a2.03,2.03,0,0,1-2.074,1.4c-1.5,0-2.4-1.2-2.4-2.962v-.167h6.1v-.861c0-2.54-1.389-4.28-3.806-4.28s-3.806,1.74-3.806,4.175v1.037C13.843-1.547,15.311.149,17.719.149ZM15.354-5.467v-.026a2.392,2.392,0,0,1,2.3-2.628,2.39,2.39,0,0,1,2.285,2.628v.026Z" transform="translate(120 47)" fill="#959595"/>
  </g>
</svg>
