<svg xmlns="http://www.w3.org/2000/svg" width="80" height="80" viewBox="0 0 80 80">
  <g id="グループ_5" data-name="グループ 5" transform="translate(-80)">
    <rect id="長方形_4" data-name="長方形 4" width="80" height="80" transform="translate(80)" fill="#e3e3e3"/>
    <path id="パス_19" data-name="パス 19" d="M-1.422.266a5.21,5.21,0,0,0,4.75-2.312h.078V0H5.984V-11.328c0-3.453-2.547-5.359-6.047-5.359-3.969,0-5.922,2.094-6.094,4.969h2.531c.156-1.641,1.359-2.719,3.469-2.719,2.219,0,3.469,1.188,3.469,3.344v1.672H-1.016c-3.766.016-5.766,1.828-5.766,4.7C-6.781-1.7-4.594.266-1.422.266ZM-.7-1.969c-1.719,0-3.328-.906-3.328-2.844,0-1.484.969-2.547,3.219-2.547H3.313v1.906C3.313-3.406,1.594-1.969-.7-1.969Z" transform="translate(120 51)" fill="#fff"/>
  </g>
</svg>
